<svg width="31" height="29" viewBox="0 0 31 29" fill="none" xmlns="http://www.w3.org/2000/svg">
<rect width="9.15446" height="2.28862" transform="matrix(-0.718931 0.695081 0.718931 0.695081 6.58105 21.0461)" fill="white"/>
<path fill-rule="evenodd" clip-rule="evenodd" d="M17.3296 23.9932C11.2427 23.9932 6.53271 19.0917 6.53271 13.3295C6.53271 7.56738 11.2427 2.66591 17.3296 2.66591C23.4166 2.66591 28.1266 7.56738 28.1266 13.3295C28.1266 19.0917 23.4166 23.9932 17.3296 23.9932ZM17.3296 26.6591C9.96793 26.6591 4.00009 20.6912 4.00009 13.3295C4.00009 5.96784 9.96793 0 17.3296 0C24.6913 0 30.6592 5.96784 30.6592 13.3295C30.6592 20.6912 24.6913 26.6591 17.3296 26.6591Z" fill="white"/>
</svg>
